<svg xmlns="http://www.w3.org/2000/svg" viewBox="0 0 125.35 244.87"><defs><style>.a{fill:#666}</style></defs><title>logo_rocket</title><path class="a" d="M112.57 121.73c2.3-8.21 4.56-17.07 6.67-26.52C131.72 39.21 102.1.96 101.8.58a1.52 1.52 0 0 0-1.87-.42c-.43.22-43.49 22.25-56 78.27-2 9-3.65 17.53-5 25.58-11.72 6.52-31.69 22.54-38.91 58.21a1.52 1.52 0 0 0 2.26 1.61 62.77 62.77 0 0 1 28.61-7.44c.7 0 1.39 0 2.08.07-.58 10.92-.43 17.18-.42 17.34a1.52 1.52 0 0 0 1.19 1.44l8.51 1.9-1.24 5.58a1.52 1.52 0 0 0 1.15 1.81l34.9 7.77a1.52 1.52 0 0 0 1.81-1.15l1.24-5.58 7.25 1.62a1.52 1.52 0 0 0 1.69-.8c.07-.14 2.83-5.67 6.9-15.67a62.56 62.56 0 0 1 23.52 19.22 1.52 1.52 0 0 0 1.26.66 1.5 1.5 0 0 0 .27.05 1.43 1.43 0 0 0 1.21-1.06c7.99-32.87-.75-54.91-9.64-67.86zm-108.88 38c7-30.26 23.57-45.06 34.6-51.78-3.11 19.19-4.51 35-5.15 45.5H30.9a65.24 65.24 0 0 0-27.21 6.23zM100.17 3.54c2.93 4.14 13.57 20.55 17.57 45.19l-26.33-5.87-26.34-5.87c14.08-20.66 30.69-31 35.1-33.5zM60.46 84.85a21.23 21.23 0 0 1 25.23-16.23 21.253 21.253 0 0 1-9.15 41.51 21.23 21.23 0 0 1-16.08-25.28zm15.82 104.12l-31.93-7.11.91-4.1 31.92 7.11zm10.61-5l-7.56-1.68v-.83l-34.89-8.6-8.82-1.14c0-4.86.1-24 4-52.46l33 7.57 33 7.46c-8.48 27.41-16.66 45.28-18.76 49.67zm33.12 1.63a64.55 64.55 0 0 0-22.86-17.71c3.8-9.56 9.15-24.18 14.43-42.5 7.67 12.23 14.46 31.93 8.4 60.19zm-61.55 5.74c-36.8-8.07-11.75 53.53-11.75 53.53s48.58-45.45 11.75-53.53zm-8.12 37s-15.07-42.09 8.11-37-8.07 37.01-8.07 37.01z"/></svg>